<?xml version="1.0" encoding="utf-8"?>
<!-- Generator: Adobe Illustrator 19.2.1, SVG Export Plug-In . SVG Version: 6.00 Build 0)  -->
<svg version="1.1" id="Layer_1" xmlns="http://www.w3.org/2000/svg" xmlns:xlink="http://www.w3.org/1999/xlink" x="0px" y="0px"
	 viewBox="0 0 400.3 400" style="enable-background:new 0 0 400.3 400;" xml:space="preserve">
<style type="text/css">
	.st0{fill:#FFFFFF;}
	.st1{fill:#BF2026;}
</style>
<rect x="63" y="59" class="st0" width="264" height="235"/>
<g>
	<path class="st1" d="M170.1,155.4c-10,0-15.9,9.5-15.9,22.3c0,12.8,6,21.9,16,21.9c10,0,15.8-9.5,15.8-22.3
		C185.9,165.5,180.3,155.4,170.1,155.4z"/>
	<path class="st1" d="M231.1,181.3H226v18.5c1.5,0.2,3.2,0.2,5.7,0.2c6.7,0,12.7-2.5,12.7-9.4C244.4,183.9,238.5,181.3,231.1,181.3z
		"/>
	<path class="st1" d="M242.9,162.6c0-5-3.8-7.6-10.5-7.6c-3.2,0-5.1,0.2-6.3,0.4v15.3h4.9C238.7,170.7,242.9,167.4,242.9,162.6z"/>
	<path class="st1" d="M47.2,0v316.2l153,83.8l152.9-83.8V0H47.2z M128.6,210.3h-14.8v-27.5H89.4v27.5H74.5v-65.6h14.9v25.2h24.4
		v-25.2h14.8V210.3z M169.4,211.3c-19.5,0-30.9-14.7-30.9-33.4c0-19.7,12.6-34.4,31.9-34.4c20.2,0,31.1,15.1,31.1,33.2
		C201.6,198.3,188.6,211.3,169.4,211.3z M253.2,205c-4.8,3.8-12.8,5.9-25.8,5.9c-7.3,0-12.8-0.5-16.1-1v-64.4
		c3.9-0.8,11.8-1.4,19.2-1.4c9.1,0,14.6,0.9,19.4,3.7c4.6,2.4,7.9,6.9,7.9,12.8c0,5.8-3.4,11.3-10.8,14v0.2c7.5,2,13,7.7,13,16.2
		C260,197,257.3,201.7,253.2,205z M297.6,211.3c-19.5,0-30.9-14.7-30.9-33.4c0-19.7,12.6-34.4,31.9-34.4c20.1,0,31.1,15.1,31.1,33.2
		C329.8,198.3,316.8,211.3,297.6,211.3z"/>
	<path class="st1" d="M298.3,155.4c-10,0-15.9,9.5-15.9,22.3c0,12.8,6,21.9,16,21.9c10,0,15.8-9.5,15.8-22.3
		C314.1,165.5,308.5,155.4,298.3,155.4z"/>
</g>
</svg>
