<?xml version="1.0" encoding="utf-8"?>
<!-- Generator: Adobe Illustrator 18.1.0, SVG Export Plug-In . SVG Version: 6.00 Build 0)  -->
<svg version="1.1" id="Layer_1" xmlns="http://www.w3.org/2000/svg" xmlns:xlink="http://www.w3.org/1999/xlink" x="0px" y="0px"
	 viewBox="0 0 400.3 400" enable-background="new 0 0 400.3 400" xml:space="preserve">
<rect x="63" y="46" fill="#FFFFFF" width="264" height="248"/>
<path fill="#65BA46" d="M47.2,0v316.2L200.2,400l152.9-83.8V0H47.2z M257.1,162.4L150.7,264.9c-4.7,5.2-10.4,7.5-15.5,6.1
	c-4.7-1.4-8-5.2-8.9-10.4c-0.5-3.8,0.5-8,3.3-12.2l32.9-64.5c7.1,0,14.1,1.4,20.7,5.6c5.6,3.8,12.2-4.7,6.1-8.5
	c-7.1-4.7-14.1-6.6-21.6-7.1l7.1-14.1c8.9-0.9,17.9,0,25.9,5.2c5.6,3.8,12.2-4.7,6.1-8.5c-8.5-5.6-17.4-7.5-26.8-7.5l6.6-13.2
	c10.8-1.4,21.6-1.4,31.5,4.7c5.6,3.8,12.2-4.7,6.1-8.5c-10.4-6.6-21.2-8-32-7.5l2.8-5.6c3.3-5.2,8-8.5,14.1-9.4
	c7.1-1.4,15.1,0.5,21.6,2.8c4.2,1.4,7.5,3.3,9.9,5.2c1.9,1.4,5.2,4.2,8.5,7.5c5.2,5.6,10.8,13.6,12.2,21.6
	C261.8,152.9,260.4,158.1,257.1,162.4z M299.9,80.5c-17.9,11.3-35.3,23.1-45.6,42.4c-0.5,0.9-0.9,1.4-1.9,1.9
	c-3.3-3.8-7.1-7.1-9.9-9.4c-2.4-1.9-6.6-4.2-11.3-6.1c2.8-9.9,3.3-20.2,0.9-30.6c-1.4-6.6,8.9-8.5,10.4-1.4
	c2.8,11.3,1.9,22.1-0.9,33.4c10.4-18.8,24-35.8,40-49.9c5.2-4.7,11.8,3.8,6.6,8.5c-7.1,6.6-13.6,13.2-20.2,20.7
	c7.5-6.6,16-12.2,24.5-17.9C299,68.2,305.6,76.7,299.9,80.5z"/>
</svg>
